<svg xmlns="http://www.w3.org/2000/svg" viewBox="0 0 360 93.92"><defs><style>.cls-1{font-size:85.57px;font-family:GTWalsheimPro-Bold, GT Walsheim Pro;font-weight:700;}.cls-1,.cls-2{fill:#fff;}</style></defs><g id="Calque_2"><g id="Calque_1-2"><text class="cls-1" transform="translate(103.8 74.9)">Amine</text><path class="cls-2" d="M75.13,92.74V1.15A1.15,1.15,0,0,0,74,0H1.21A1.16,1.16,0,0,0,.29,1.87l9.3,12a1.19,1.19,0,0,0,.94.47h49a1.17,1.17,0,0,1,1.18,1.17v63a1.18,1.18,0,0,1-1.18,1.18H53.17A1.18,1.18,0,0,1,52,78.45V32.11a1.18,1.18,0,0,0-1.18-1.18H1.18A1.18,1.18,0,0,0,0,32.11V92.77a1.15,1.15,0,0,0,1.15,1.15H74A1.18,1.18,0,0,0,75.13,92.74ZM36.42,79.63H15.61a1.18,1.18,0,0,1-1.18-1.18V46.36a1.15,1.15,0,0,1,1.15-1.15H36.42a1.16,1.16,0,0,1,1.15,1.15V78.48A1.15,1.15,0,0,1,36.42,79.63Z"/></g></g></svg>